PathFileType	4	(X/Y/Z)	8_2_33_p1_0-294_filt_butterworth.trc
DataRate	CameraRate	NumFrames	NumMarkers	Units	OrigDataRate	OrigDataStartFrame	OrigNumFrames
59.0	59.0	6	27	m	59.0	183	294
Frame#	Time	RHip			RKnee			RAnkle			RBigToe			RSmallToe			RHeel			LHip			LKnee			LAnkle			LBigToe			LSmallToe			LHeel			Neck			Head			Nose			RShoulder			RElbow			RWrist			RThumb			RIndex			RPinky			LShoulder			LElbow			LWrist			LThumb			LIndex			LPinky			
		X1	Y1	Z1	X2	Y2	Z2	X3	Y3	Z3	X4	Y4	Z4	X5	Y5	Z5	X6	Y6	Z6	X7	Y7	Z7	X8	Y8	Z8	X9	Y9	Z9	X10	Y10	Z10	X11	Y11	Z11	X12	Y12	Z12	X13	Y13	Z13	X14	Y14	Z14	X15	Y15	Z15	X16	Y16	Z16	X17	Y17	Z17	X18	Y18	Z18	X19	Y19	Z19	X20	Y20	Z20	X21	Y21	Z21	X22	Y22	Z22	X23	Y23	Z23	X24	Y24	Z24	X25	Y25	Z25	X26	Y26	Z26	X27	Y27	Z27	
183	3.101694915254237	0.2975934224728929	0.7272113492034867	0.9175220314952962	0.22563313212413308	0.35885200327596534	0.746132587553808	0.21387627537070222	-0.14587358404890322	0.903821826731323	0.20418736381631375	-0.10075729631560568	0.6388275837863124	0.24789410339849483	-0.11916007151114942	0.6980144722962317	0.21337445147610454	-0.20516901971041193	0.9428451815237439	0.09247691363212199	0.7385463503164602	0.9400130939383049	0.06268415039685145	0.353866822049291	0.8221333700536907	0.05556280849931636	-0.12107299363483348	0.8615829361636674	0.06156725350574939	-0.09926682839010562	0.6413502277650496	0.0027413415137796894	-0.10065324388535829	0.6937392273450718	0.061857551144968416	-0.19878568469672908	0.955239046461845	0.16599252097722444	1.0932151787620144	0.6102073328149678	0.18667451658205028	1.392776776166304	0.3693510951874106	0.17159862239353535	1.2274706615619049	0.38945022858910056	0.3121319964704803	1.0849183479078606	0.5401541370842518	0.25248009948003935	0.8600460167738915	0.42334737162551317	0.13345171235323486	0.6653475470030608	0.21376236710055607	0.06249316040235524	0.6100914508862147	0.08320756164692562	0.06095423010323036	0.5925952722301518	0.07717268017706826	0.12420551842845048	0.589010486416069	0.11669853511938394	0.0017452278528914803	1.1168561313811014	0.683332209244033	0.015410342232422203	0.8386088497003613	0.7724090868285793	0.09578272895067899	0.6275494408266057	0.7067044724819522	0.1469796609355145	0.5524660811786567	0.6270318221341626	0.13514995472555502	0.5205779865480761	0.6207844663492706	0.08770346270959553	0.4726606692426316	0.6933368861155345	
184	3.1186440677966103	0.29639787940839285	0.726539673749762	0.9138660830876326	0.22495165132602368	0.35792324964820627	0.7444680798283754	0.21376020767846252	-0.14560248015400779	0.9036034375336474	0.2034446289255969	-0.09961315905202647	0.6371527818293439	0.24777843526754526	-0.11926643690631336	0.6979106682262807	0.2130946867376425	-0.2052569454396732	0.9431707396300312	0.0921278009531696	0.7365092038637683	0.9411775825462247	0.06290322358170361	0.35372726919350117	0.8206782960094163	0.055202903952965315	-0.12063407719967642	0.8618078620660024	0.06104100029435801	-0.09683896583141584	0.6388313392606225	0.0029669467486838083	-0.09756990544639542	0.6897452100772679	0.06187257008268536	-0.1989228738177588	0.9556828722553224	0.1658354167341698	1.0961687902484558	0.6093318108524047	0.1866328513334229	1.3954223501453866	0.3724005761550145	0.1710224213713445	1.2324032562804719	0.39177689388975273	0.3126390755917185	1.0871462339502205	0.5399782151872833	0.25639058405503046	0.8603340666841967	0.427654604562852	0.1371074227160783	0.6667565302261655	0.2185557499474176	0.06179942694835355	0.6110534112806055	0.09094649496030847	0.0621388599339768	0.597998071382783	0.0825438600778925	0.12156021557441613	0.589242833432278	0.11939666016073534	0.0009519105392691467	1.1167229595982004	0.6849807817517339	0.014662694373317627	0.8392023669190547	0.7706168255020345	0.09565016698086462	0.6244999611303137	0.7074868876894671	0.14762567255730796	0.5517869496123	0.6262699775223385	0.13433502500499697	0.5185299116144705	0.6197839900993414	0.08780914385715186	0.4698289468094182	0.6917749066135879	
185	3.135593220338983	0.2951010714520402	0.7266231606218423	0.909972259752234	0.22504785231888014	0.3566068050733523	0.7441497893546574	0.21385771052277683	-0.14502002648684814	0.9033719033025507	0.20251777940270083	-0.09809893896434951	0.634398975610812	0.24718236609044097	-0.11912803563745275	0.6975644486847924	0.21279656240811506	-0.20522219253545837	0.9433456668338799	0.09183239016445005	0.7347228800669591	0.9425166561450717	0.06292226338188701	0.35369898390808885	0.8194455247389127	0.054715085614873815	-0.11960714677162464	0.8617962156615411	0.05990230318520809	-0.09424126465527488	0.6354376047676786	0.002903843540819028	-0.09438486525015018	0.6858791134063642	0.061937310775658776	-0.19883595302430732	0.9560120458798311	0.16573105857725234	1.101968381614137	0.6083805627360924	0.18632866148395633	1.3999236716233365	0.3770987730214443	0.17004902498100077	1.2404947089067746	0.3945287495977786	0.31368746203644554	1.0905766152152672	0.5409064918906833	0.26218646106122756	0.8607739859707455	0.43540280839068657	0.1415889564341397	0.6705761828273771	0.22427330954305014	0.06227417288701259	0.6129384451844965	0.10427950888670368	0.06456246766596524	0.6044132484247876	0.09130227202068034	0.11917583352387835	0.5900544738604964	0.12579012703021622	0.00028776944426037995	1.1182822997656665	0.6850184428054927	0.013980200146652917	0.8416414934023808	0.7660987786191124	0.0958716097442788	0.6217923786887377	0.7085279084913568	0.14861115949890571	0.5518764345844167	0.6253597505810711	0.13502647763481132	0.5165441151148318	0.6189054263236188	0.08867775802596438	0.4670046463614952	0.6914014048995355	
186	3.152542372881356	0.29368789704730147	0.7275556938044503	0.9056535397687179	0.22584875961455164	0.3549916183876084	0.7451252304838245	0.21414403390608436	-0.14431792012844374	0.903309771508544	0.20154881647676534	-0.09632967101628814	0.6309824510013226	0.24651669746334462	-0.11835077545110335	0.6966869370956295	0.2125070464071841	-0.20506518708871774	0.9433580087311686	0.09146336000111285	0.7335744656273347	0.9432662171498732	0.06267116266468228	0.35399730984719846	0.8185357624651074	0.05408073327050451	-0.11800224976098304	0.8615618963572986	0.0585068106288623	-0.0917286263720159	0.6317326227690814	0.0026604849075818698	-0.09149098072120669	0.6828644743860159	0.06203039966453674	-0.19849189881578233	0.9563434973744581	0.1657715311053762	1.1110233733444292	0.6074040440743793	0.18537703296548763	1.4066294936285793	0.3836622071157398	0.1687966801363432	1.251343979706026	0.3973426841254367	0.315488601602393	1.0954052387484607	0.543499591383423	0.26953425643990403	0.8608405043697721	0.446258361889873	0.14674184839549753	0.6759790110762006	0.23212117278860894	0.06455337106530969	0.6168883945883195	0.12106251363331336	0.06869853516932589	0.6119155148371789	0.10319815534654679	0.11835037896614217	0.5921833172238425	0.1365950123007149	-0.00026146822509491124	1.1218028581877715	0.6837988568824893	0.013432431890166048	0.8460300001521459	0.7590901356163492	0.09590672422639288	0.620173194781944	0.7082025939026035	0.1487808948298999	0.5532908263495417	0.6210439714309202	0.13541453540788437	0.5162793494417955	0.6144175419415315	0.08929584396707821	0.46465255187907256	0.6905471236501648	
187	3.169491525423729	0.292179750712262	0.7296108373388591	0.9006551763742298	0.22730061081431346	0.35324104767667985	0.7473303755843501	0.21457922320180384	-0.14358651212048562	0.9035756095253935	0.20080312477145446	-0.09457148984758385	0.6278078083605712	0.2462059462063979	-0.11678153152616744	0.6950550378498808	0.2122463290244057	-0.20479568779370377	0.9433191913161518	0.09101603580830574	0.7335026481639221	0.9429144592859313	0.06223733091245511	0.3546965453331138	0.8180077302751365	0.053319778476737335	-0.11598847014664934	0.8611043097034368	0.05719267712837109	-0.08958268039242262	0.6285310564209615	0.0024660676529132545	-0.0890900543836858	0.680854069073779	0.06214093965011725	-0.1978826498177378	0.9567246222248996	0.1660467974081386	1.1235052903241203	0.6063530336026709	0.183616856666094	1.4158234121182385	0.39218251082504574	0.16744268713721294	1.264536458138047	0.40011215998776267	0.3180512266849413	1.1020610028800002	0.5479001294559986	0.2776476649374875	0.8606976059098866	0.45913602882265503	0.15234349084083426	0.6823259711865495	0.24322697423827172	0.06894133856106985	0.6242932983356922	0.13850315439191405	0.07473222869978205	0.6209912999050028	0.1178180393351581	0.11994262370745838	0.5962635545121524	0.15167756948006586	-0.0005985020585814752	1.127430213149764	0.6819960664818931	0.01311965249779444	0.8524206088050047	0.7506240406241642	0.0949826332486031	0.6209166215286717	0.7045636845138503	0.14710799949321904	0.5566498643428419	0.6102726073334498	0.13335566790803852	0.5204743550666243	0.6019442563149559	0.08815627528041582	0.464702448667602	0.686348944844161	
188	3.1864406779661016	0.2906350945520736	0.7331650850270126	0.8949061363703905	0.22935382687507616	0.3514464154922816	0.7506838132103448	0.21510970434346582	-0.14285072856483833	0.9042546680379381	0.20051614887676134	-0.09315607561603535	0.6258076086363308	0.24651310637544332	-0.11445616733278027	0.6926197121594335	0.21204618591554128	-0.20442143736227328	0.9433068085344156	0.09052432809696304	0.7348187130736592	0.9413455830057779	0.061817496663489804	0.355647981281467	0.8178535280183155	0.052503813287317735	-0.11381712066673376	0.8604096463516175	0.05620900321197097	-0.08811433932779147	0.6268596010264931	0.002404293468147808	-0.08750158502588994	0.6801909067221017	0.06230170623734184	-0.1971156610082223	0.9571108736323196	0.1665389318640617	1.1393193190500759	0.605233305916332	0.18106359717700637	1.4274444752699251	0.40240667774747424	0.16616450516721043	1.2796670651803914	0.40307142514959315	0.3210916317836009	1.1108322823599732	0.5537029428804381	0.2857011698793477	0.8614491956680875	0.4730361015542317	0.1583564652195118	0.689798365239245	0.2580474988747866	0.0752923719814076	0.636284094510832	0.15479875558734169	0.08266038641991098	0.6324527634794141	0.1346357084739084	0.12443409411670878	0.6028588792810252	0.17044075293587796	-0.0005951942159541536	1.1353961636409247	0.6804142635196107	0.01294342294777874	0.8611764177226979	0.7416248737820661	0.09270402922868856	0.6250329889388933	0.6966208992239786	0.1431174230750509	0.5620814535165228	0.5929142516511785	0.12795822499123907	0.5306936541820058	0.5800171123327429	0.08406166464375284	0.4697549813944565	0.6759146806420562	
